<svg version="1.1" xmlns="http://www.w3.org/2000/svg" x="0px" y="0px"
	 viewBox="0 0 3710 3710" style="enable-background:new 0 0 3710 3710;" xml:space="preserve">
<g id="Illustration">
	<g>
		<linearGradient id="SVGID_1_" gradientUnits="userSpaceOnUse" x1="3519.915" y1="3664.228" x2="1561.9059" y2="1579.8962">
			<stop  offset="0" style="stop-color:#DAE3FE"/>
			<stop  offset="1" style="stop-color:#E9EFFD"/>
		</linearGradient>
		<path style="fill:url(#SVGID_1_);" d="M2932.024,2828.003c-72.281,74.506-136.957,118.302-186.474,151.366
			c-482.935,322.46-1034.982,229.519-1205.661,197.752c-275.37-51.252-507.821-87.408-707.537-267.844
			C378.536,2499.272,400.609,1643.972,747.38,1114.15c41.117-62.822,387.362-576.065,940.605-648.386
			c13.531-1.769,23.628-2.776,32.471-3.712c85.585-9.061,615.94-56.886,1048.392,305.422
			c61.904,51.862,161.524,145.409,253.904,288.083C3360.536,1577.238,3361.606,2385.207,2932.024,2828.003z"/>
		<g>
			<g>
				<g style="opacity:0.3;">
					<path style="fill:#91B3FA;" d="M2246.95,1074.159c2.982-3.361,8.125-3.665,11.484-0.682
						c6.527,5.794,13.402,11.392,20.436,16.637c3.559,2.654,4.325,7.662,1.751,11.255c-0.031,0.043-0.061,0.085-0.093,0.129
						c-2.685,3.601-7.782,4.342-11.384,1.656c-7.403-5.521-14.642-11.413-21.512-17.514c-3.142-2.788-3.611-7.469-1.217-10.811
						C2246.58,1074.599,2246.757,1074.374,2246.95,1074.159z M2314.855,1113.294c7.679,4.235,15.612,8.182,23.585,11.733
						c4.101,1.826,5.948,6.635,4.122,10.739c-1.848,4.113-6.638,5.948-10.742,4.12c-8.389-3.736-16.74-7.889-24.821-12.344
						c-3.933-2.169-5.363-7.118-3.194-11.052c0.158-0.286,0.33-0.559,0.515-0.817
						C2306.689,1112.368,2311.208,1111.282,2314.855,1113.294z M2378.639,1139.671c8.406,2.413,17.019,4.49,25.604,6.172
						c4.407,0.864,7.281,5.139,6.418,9.547c-0.868,4.403-5.137,7.279-9.547,6.418c-9.041-1.772-18.114-3.959-26.964-6.5
						c-4.318-1.239-6.812-5.745-5.575-10.063c0.265-0.92,0.677-1.758,1.205-2.494
						C2371.728,1140.033,2375.242,1138.696,2378.639,1139.671z M2446.721,1151.121c8.743,0.474,17.608,0.572,26.351,0.296
						c4.49-0.141,8.245,3.385,8.387,7.873c0.137,4.49-3.388,8.241-7.874,8.387c-9.205,0.29-18.538,0.185-27.74-0.31
						c-4.485-0.243-7.926-4.076-7.683-8.561c0.087-1.605,0.633-3.076,1.504-4.293
						C2441.231,1152.329,2443.841,1150.967,2446.721,1151.121z M2515.656,1147.117c8.609-1.477,17.279-3.342,25.763-5.55
						c4.35-1.129,8.789,1.48,9.92,5.827c1.132,4.35-1.479,8.791-5.827,9.917c-8.926,2.321-18.048,4.285-27.107,5.838
						c-4.427,0.76-8.632-2.213-9.391-6.642c-0.383-2.231,0.182-4.406,1.404-6.112
						C2511.621,1148.718,2513.46,1147.494,2515.656,1147.117z M2581.988,1127.961c8.082-3.348,16.119-7.086,23.891-11.109
						c3.989-2.065,8.899-0.505,10.962,3.482c2.066,3.99,0.509,8.897-3.482,10.965c-8.178,4.235-16.64,8.168-25.145,11.692
						c-4.151,1.718-8.907-0.251-10.628-4.402c-1.117-2.696-0.676-5.647,0.907-7.857
						C2579.347,1129.54,2580.532,1128.563,2581.988,1127.961z M2776.024,896.479c4.407,0.87,7.274,5.149,6.403,9.557
						c-1.786,9.028-3.991,18.101-6.553,26.963c-1.248,4.316-5.758,6.803-10.073,5.554c-4.314-1.246-6.801-5.756-5.554-10.071
						c2.433-8.415,4.525-17.03,6.219-25.603c0.233-1.176,0.707-2.241,1.363-3.157
						C2769.629,897.209,2772.792,895.839,2776.024,896.479z M2642.386,1094.598c7.131-5.059,14.129-10.489,20.798-16.143
						c3.429-2.904,8.562-2.48,11.466,0.947c2.906,3.429,2.465,8.545-0.948,11.465c-7.024,5.952-14.394,11.672-21.904,16.999
						c-3.664,2.599-8.741,1.736-11.341-1.928c-2.062-2.906-1.945-6.702,0.02-9.444
						C2640.989,1095.779,2641.629,1095.137,2642.386,1094.598z M2756.269,964.562c4.099,1.835,5.935,6.648,4.099,10.749
						c-3.761,8.397-7.936,16.744-12.401,24.809c-2.161,3.943-7.127,5.349-11.057,3.175c-3.929-2.176-5.35-7.126-3.175-11.057
						c4.245-7.664,8.212-15.596,11.785-23.578c0.228-0.509,0.504-0.982,0.817-1.418
						C2748.543,964.163,2752.68,962.954,2756.269,964.562z M2693.803,1048.583c5.815-6.523,11.426-13.383,16.675-20.393
						c2.692-3.598,7.789-4.33,11.386-1.637c3.548,2.658,4.308,7.658,1.738,11.245c-0.033,0.047-0.068,0.094-0.104,0.139
						c-5.523,7.382-11.429,14.605-17.549,21.471c-2.992,3.352-8.132,3.648-11.486,0.659c-3.132-2.791-3.595-7.464-1.205-10.801
						C2693.427,1049.032,2693.61,1048.804,2693.803,1048.583z"/>
					<path style="fill:#91B3FA;" d="M2773.792,842.919c-0.933,1.302-1.493,2.892-1.517,4.616c-0.058,4.194-0.207,8.455-0.435,12.669
						c-0.246,4.484,3.192,8.322,7.676,8.566c4.486,0.247,8.328-3.189,8.565-7.678c0.244-4.432,0.398-8.913,0.461-13.327
						c0.063-4.491-3.528-8.185-8.017-8.248C2777.755,839.477,2775.291,840.826,2773.792,842.919z"/>
				</g>
				<g style="opacity:0.3;">
					<path style="fill:#91B3FA;" d="M2680.169,613.285c-2.286,3.191-1.985,7.658,0.893,10.51c2.979,2.95,5.948,6.013,8.82,9.102
						c3.06,3.291,8.206,3.478,11.496,0.419c3.303-3.072,3.477-8.207,0.419-11.496c-3.025-3.252-6.15-6.478-9.287-9.585
						c-3.192-3.161-8.342-3.135-11.504,0.056C2680.697,612.604,2680.418,612.938,2680.169,613.285z"/>
					<path style="fill:#91B3FA;" d="M2209.383,640.65c2.792-3.519,7.908-4.109,11.429-1.315c3.518,2.792,4.103,7.9,1.315,11.427
						c-5.316,6.7-10.428,13.731-15.258,20.974c-2.468,3.728-7.544,4.746-11.281,2.254c-3.737-2.492-4.747-7.542-2.256-11.281
						c2.092-3.138,4.229-6.23,6.408-9.272C2202.851,649.096,2206.094,644.793,2209.383,640.65z M2182.171,697.414
						c4.038,1.963,5.722,6.83,3.758,10.869c-3.768,7.758-7.251,15.757-10.349,23.778c-1.603,4.191-6.326,6.277-10.518,4.659
						c-4.188-1.617-6.274-6.327-4.656-10.516c3.26-8.446,6.926-16.868,10.894-25.029c0.206-0.423,0.444-0.822,0.708-1.191
						C2174.274,696.821,2178.552,695.656,2182.171,697.414z M2239.246,607.895c6.541-6.254,13.439-12.315,20.506-18.01
						c3.498-2.819,8.619-2.269,11.439,1.229c2.818,3.497,2.264,8.613-1.229,11.438c-6.712,5.408-13.262,11.161-19.472,17.101
						c-3.248,3.104-8.396,2.99-11.502-0.258c-2.746-2.872-2.971-7.233-0.737-10.351
						C2238.541,608.639,2238.872,608.253,2239.246,607.895z M2157.091,762.51c4.372,1.028,7.086,5.407,6.056,9.779
						c-1.972,8.382-3.607,16.949-4.863,25.461c-0.654,4.448-4.787,7.516-9.234,6.859c-4.444-0.655-7.514-4.788-6.859-9.231
						c1.323-8.965,3.045-17.987,5.12-26.813c0.252-1.066,0.7-2.035,1.301-2.875C2150.475,763.092,2153.786,761.733,2157.091,762.51z
						 M2296.065,564.526c7.751-4.659,15.811-9.051,23.957-13.055c4.031-1.982,8.904-0.322,10.886,3.708
						c1.985,4.033,0.322,8.907-3.709,10.889c-7.737,3.805-15.392,7.976-22.753,12.401c-3.851,2.314-8.849,1.069-11.163-2.782
						c-1.724-2.869-1.472-6.374,0.36-8.931C2294.27,565.88,2295.084,565.115,2296.065,564.526z M2361.018,534.669
						c8.603-2.859,17.427-5.388,26.227-7.518c4.368-1.055,8.762,1.627,9.82,5.994c1.057,4.373-1.626,8.767-5.994,9.818
						c-8.361,2.024-16.747,4.427-24.923,7.143c-4.263,1.417-8.867-0.891-10.284-5.154c-0.852-2.569-0.353-5.262,1.112-7.306
						C2357.94,536.297,2359.325,535.231,2361.018,534.669z M2430.937,519.676c9.026-0.918,18.193-1.465,27.24-1.627
						c4.493-0.08,8.197,3.496,8.278,7.987c0.081,4.498-3.497,8.198-7.987,8.278c-8.598,0.152-17.305,0.674-25.885,1.547
						c-4.469,0.455-8.461-2.8-8.915-7.268c-0.209-2.053,0.363-4.004,1.477-5.559
						C2426.458,521.203,2428.521,519.922,2430.937,519.676z M2502.46,520.292c9.008,1.077,18.074,2.552,26.947,4.385
						c4.399,0.908,7.23,5.211,6.321,9.612c-0.907,4.392-5.213,7.227-9.612,6.318c-8.424-1.74-17.031-3.14-25.589-4.163
						c-4.46-0.534-7.643-4.581-7.109-9.041c0.169-1.409,0.688-2.689,1.459-3.766C2496.549,521.304,2499.407,519.928,2502.46,520.292
						z M2572.136,536.619c8.528,3.028,17.039,6.463,25.3,10.208c4.092,1.855,5.906,6.677,4.05,10.768
						c-1.851,4.078-6.674,5.905-10.766,4.05c-7.847-3.559-15.931-6.819-24.031-9.698c-4.232-1.502-6.445-6.154-4.941-10.386
						c0.262-0.737,0.618-1.414,1.052-2.02C2564.858,536.669,2568.641,535.377,2572.136,536.619z M2636.46,567.813
						c5.648,3.546,11.256,7.311,16.667,11.188c1.96,1.405,3.897,2.825,5.817,4.265c3.592,2.694,4.425,7.8,1.626,11.386
						c-2.693,3.595-7.792,4.324-11.388,1.628c-1.823-1.367-3.667-2.721-5.529-4.055c-5.145-3.686-10.473-7.264-15.843-10.636
						c-3.804-2.388-4.951-7.409-2.563-11.213c0.091-0.142,0.183-0.283,0.28-0.419C2628.012,566.49,2632.8,565.513,2636.46,567.813z"
						/>
					<path style="fill:#91B3FA;" d="M2140.264,835.133c-0.942,1.315-1.502,2.92-1.519,4.657c-0.04,4.404,0.012,8.891,0.156,13.338
						c0.144,4.491,3.901,8.013,8.391,7.868c4.49-0.146,8.014-3.897,7.868-8.391c-0.136-4.224-0.185-8.487-0.148-12.668
						c0.043-4.49-3.565-8.166-8.058-8.207C2144.2,831.707,2141.754,833.053,2140.264,835.133z"/>
				</g>
				<g>
					<path style="fill:#91B3FA;" d="M2237.865,934.726c0.425,1.566,1.795,2.689,3.414,2.798l46.165,3.117
						c10.26,19.017,23.625,36.535,39.882,51.706l-8.673,45.419c-0.304,1.593,0.436,3.204,1.843,4.011l48.143,27.612
						c1.407,0.808,3.171,0.633,4.392-0.434l34.825-30.42c21.304,6.372,43.174,9.064,64.769,8.317l26,38.273
						c0.912,1.341,2.574,1.957,4.139,1.533l53.568-14.517c1.565-0.424,2.69-1.795,2.798-3.414l3.116-46.164
						c19.018-10.259,36.536-23.624,51.707-39.883l45.419,8.673c1.593,0.304,3.204-0.435,4.01-1.843l27.614-48.144
						c0.806-1.407,0.632-3.171-0.435-4.392l-30.421-34.825c6.373-21.304,9.064-43.174,8.316-64.769l38.274-26
						c1.341-0.911,1.958-2.573,1.533-4.139l-14.517-53.568c-0.424-1.565-1.795-2.689-3.412-2.798l-46.166-3.116
						c-10.258-19.018-23.624-36.535-39.882-51.706l8.673-45.419c0.305-1.593-0.435-3.204-1.842-4.011l-48.144-27.613
						c-1.407-0.807-3.171-0.632-4.392,0.435l-34.825,30.42c-21.304-6.372-43.174-9.064-64.769-8.317l-26-38.273
						c-0.911-1.342-2.573-1.957-4.139-1.533l-53.567,14.518c-1.565,0.424-2.689,1.795-2.798,3.413l-3.116,46.165
						c-19.018,10.259-36.535,23.625-51.707,39.882l-45.419-8.673c-1.592-0.303-3.203,0.436-4.01,1.843l-27.612,48.144
						c-0.807,1.407-0.633,3.171,0.435,4.392l30.419,34.824c-6.373,21.304-9.063,43.174-8.316,64.769l-38.274,26
						c-1.342,0.911-1.957,2.574-1.533,4.139L2237.865,934.726z"/>
					<g>
						<path style="fill:#BDD0FB;" d="M2425.679,805.444c21.371-22.125,56.756-22.742,78.884-1.37
							c10.72,10.352,16.765,24.259,17.023,39.158c0.26,14.896-5.296,29.006-15.653,39.724c-21.371,22.125-56.756,22.742-78.884,1.37
							c-20.13-19.443-22.455-50.484-6.617-72.59C2422.003,809.545,2423.753,807.439,2425.679,805.444z M2508.573,843.457
							c-0.198-11.424-4.833-22.085-13.052-30.024c-16.963-16.383-44.097-15.913-60.481,1.052
							c-16.395,16.964-15.913,44.097,1.052,60.483c16.963,16.383,44.097,15.913,60.481-1.051c1.486-1.539,2.839-3.166,4.062-4.873
							C2505.947,861.629,2508.734,852.742,2508.573,843.457z"/>
					</g>
					<path style="fill:#BDD0FB;" d="M2355.598,763.88c-2.72,3.797-5.265,7.752-7.621,11.859l0,0
						c-0.742,1.292-1.462,2.597-2.163,3.913c-3.449,6.489-6.377,13.243-8.738,20.156c-0.032,0.094-0.064,0.188-0.097,0.282
						c-0.09,0.268-0.18,0.535-0.268,0.805c-0.174,0.522-0.343,1.046-0.51,1.569c-0.439,1.377,0.086,2.831,1.201,3.632
						c0.271,0.194,0.578,0.35,0.912,0.456c1.712,0.546,3.538-0.405,4.086-2.113c2.806-8.81,6.582-17.376,11.222-25.461
						c23.03-40.169,64.303-63.471,107.446-65.489c23.996-1.125,48.572,4.338,70.91,17.152c3.918,2.246,7.693,4.674,11.314,7.269
						c24.369,17.464,41.845,42.569,49.792,71.896c9.13,33.687,4.595,68.914-12.769,99.189
						c-35.868,62.523-115.86,84.182-178.356,48.337c-3.854-2.21-7.581-4.607-11.167-7.179
						c-15.544-11.141-28.478-25.559-37.822-42.266c-0.242-0.432-0.566-0.786-0.944-1.056c-0.992-0.711-2.347-0.832-3.483-0.195
						c-1.566,0.883-2.133,2.857-1.25,4.429c9.81,17.539,23.388,32.679,39.707,44.375c3.765,2.699,7.677,5.215,11.72,7.536
						c65.615,37.635,149.619,14.849,187.24-50.743c18.23-31.784,22.99-68.764,13.405-104.129
						c-8.342-30.789-26.689-57.143-52.271-75.478c-3.802-2.724-7.765-5.272-11.875-7.631
						c-31.786-18.23-68.767-22.991-104.131-13.407C2400.291,719.934,2373.932,738.29,2355.598,763.88z"/>
				</g>
			</g>
			<g>
				<g style="opacity:0.3;">
					<path style="fill:#91B3FA;" d="M1910.507,1175.623c-1.266,1.767-1.279,4.22,0.129,6.019c2.626,3.36,5.391,6.687,8.217,9.886
						c1.836,2.079,5.008,2.276,7.091,0.439c2.09-1.831,2.275-5.012,0.439-7.091c-2.693-3.048-5.328-6.219-7.835-9.425
						c-1.706-2.185-4.864-2.57-7.052-0.864C1911.109,1174.892,1910.78,1175.242,1910.507,1175.623z"/>
					<path style="fill:#91B3FA;" d="M1937.325,1203.35c1.838-2.078,5.011-2.276,7.091-0.438c5.25,4.634,10.799,9.053,16.49,13.13
						c1.2,0.86,2.415,1.709,3.642,2.549c2.286,1.568,2.871,4.695,1.303,6.984c-1.569,2.105-4.695,2.871-6.988,1.304
						c-1.283-0.88-2.553-1.769-3.809-2.669c-5.966-4.275-11.784-8.908-17.288-13.769c-1.949-1.719-2.245-4.617-0.762-6.686
						C1937.103,1203.617,1937.212,1203.483,1937.325,1203.35z M1986.434,1231.704c7.536,3.911,15.38,7.392,23.317,10.341
						c2.602,0.968,3.924,3.856,2.958,6.459c-0.965,2.586-3.857,3.927-6.459,2.959c-8.318-3.09-16.543-6.738-24.444-10.841
						c-2.463-1.279-3.423-4.311-2.146-6.776c0.112-0.215,0.242-0.421,0.38-0.615
						C1981.473,1231.233,1984.19,1230.54,1986.434,1231.704z M2034.176,1249.424c8.252,1.944,16.711,3.387,25.15,4.295
						c2.756,0.297,4.753,2.775,4.456,5.531c-0.299,2.767-2.769,4.757-5.531,4.459c-8.849-0.95-17.724-2.469-26.376-4.504
						c-2.7-0.637-4.377-3.342-3.741-6.042c0.157-0.657,0.435-1.255,0.806-1.773
						C2030.09,1249.785,2032.134,1248.945,2034.176,1249.424z M2084.813,1254.872c8.489-0.14,17.049-0.809,25.428-1.99
						c2.751-0.386,5.291,1.528,5.676,4.275c0.384,2.741-1.525,5.287-4.272,5.676c-8.793,1.238-17.763,1.939-26.668,2.086
						c-2.774,0.047-5.061-2.169-5.107-4.942c-0.014-1.118,0.333-2.157,0.938-3.003
						C2081.704,1255.724,2083.158,1254.9,2084.813,1254.872z M2135.246,1247.793c8.197-2.199,16.331-4.927,24.185-8.105
						c2.569-1.041,5.499,0.201,6.541,2.773c1.042,2.572-0.195,5.503-2.773,6.541c-8.229,3.332-16.758,6.189-25.347,8.498
						c-2.68,0.717-5.436-0.871-6.154-3.549c-0.406-1.514-0.077-3.052,0.769-4.232
						C2133.119,1248.808,2134.079,1248.108,2135.246,1247.793z M2182.432,1228.687c7.408-4.123,14.625-8.747,21.456-13.748
						c2.236-1.639,5.382-1.153,7.02,1.085c1.637,2.238,1.155,5.372-1.085,7.023c-7.161,5.244-14.735,10.095-22.505,14.42
						c-2.425,1.346-5.484,0.477-6.832-1.946c-0.975-1.755-0.79-3.843,0.306-5.373
						C2181.211,1229.565,2181.76,1229.059,2182.432,1228.687z M2223.495,1198.632c6.15-5.796,12.018-12.057,17.439-18.612
						c1.771-2.135,4.937-2.435,7.073-0.665c2.138,1.766,2.407,4.905,0.67,7.076c-5.687,6.867-11.839,13.432-18.289,19.512
						c-2.02,1.902-5.2,1.808-7.104-0.21c-1.674-1.775-1.801-4.453-0.429-6.367
						C2223.041,1199.107,2223.253,1198.86,2223.495,1198.632z M2275.048,1134.731c2.504,1.197,3.562,4.193,2.365,6.698
						c-3.312,6.93-7.061,13.798-11.13,20.395c-0.613,1.006-1.238,1.998-1.869,2.988c-1.419,2.369-4.603,3.021-6.942,1.518
						c-2.337-1.497-3.016-4.602-1.521-6.941c0.596-0.925,1.181-1.86,1.766-2.82c3.896-6.313,7.473-12.864,10.632-19.472
						c0.129-0.273,0.282-0.528,0.451-0.764C2270.194,1134.388,2272.819,1133.665,2275.048,1134.731z"/>
				</g>
				<g style="opacity:0.3;">
					<path style="fill:#91B3FA;" d="M1906.988,919.124c5.191-7.051,10.86-13.843,16.843-20.197c1.903-2.016,5.082-2.114,7.103-0.21
						c2.022,1.904,2.082,5.079,0.21,7.103c-5.708,6.056-11.113,12.537-16.065,19.264c-1.644,2.235-4.791,2.711-7.023,1.067
						c-2.216-1.633-2.705-4.741-1.107-6.971C1906.961,919.162,1906.975,919.142,1906.988,919.124z M1899.535,939.316
						c2.414,1.365,3.265,4.431,1.899,6.844c-4.107,7.266-7.817,14.852-11.023,22.553c-1.067,2.543-4.007,3.774-6.572,2.703
						c-2.562-1.066-3.77-4.004-2.706-6.568c3.361-8.069,7.248-16.021,11.555-23.633c0.091-0.161,0.187-0.312,0.293-0.46
						C1894.455,938.698,1897.275,938.038,1899.535,939.316z M1943.02,880.914c6.745-5.59,13.888-10.817,21.231-15.532
						c2.335-1.499,5.446-0.82,6.943,1.513c1.502,2.334,0.823,5.43-1.509,6.942c-7.007,4.497-13.819,9.481-20.257,14.812
						c-2.137,1.77-5.304,1.472-7.071-0.66c-1.489-1.797-1.516-4.32-0.218-6.131C1942.384,881.515,1942.677,881.197,1943.02,880.914z
						 M1878.713,986.235c2.672,0.744,4.234,3.516,3.49,6.189c-2.241,8.039-4.009,16.293-5.252,24.54
						c-0.418,2.739-2.978,4.629-5.714,4.219c-2.745-0.415-4.635-2.974-4.22-5.718c1.302-8.648,3.156-17.309,5.508-25.739
						c0.164-0.583,0.423-1.112,0.756-1.577C1874.474,986.482,1876.625,985.654,1878.713,986.235z M1987.202,852.555
						c7.873-3.795,16.063-7.147,24.341-9.966c2.626-0.894,5.482,0.512,6.376,3.138c0.895,2.627-0.506,5.483-3.138,6.376
						c-7.898,2.685-15.707,5.883-23.215,9.506c-2.498,1.204-5.502,0.156-6.708-2.347c-0.826-1.711-0.591-3.664,0.444-5.11
						C1985.776,853.492,1986.417,852.934,1987.202,852.555z M2036.905,835.62c8.57-1.802,17.327-3.099,26.024-3.858
						c2.762-0.241,5.197,1.802,5.438,4.566c0.243,2.761-1.801,5.201-4.569,5.442c-8.292,0.725-16.646,1.964-24.825,3.684
						c-2.715,0.572-5.379-1.168-5.95-3.883c-0.301-1.434,0.042-2.855,0.834-3.962
						C2034.562,836.623,2035.626,835.889,2036.905,835.62z M2089.237,831.072c8.759,0.3,17.576,1.144,26.2,2.501
						c2.743,0.433,4.613,3.004,4.182,5.745c-0.43,2.74-3.006,4.609-5.742,4.182c-8.226-1.297-16.632-2.1-24.982-2.382
						c-2.774-0.096-4.946-2.421-4.848-5.194c0.032-1.03,0.376-1.973,0.933-2.75C2085.925,831.853,2087.492,831.013,2089.237,831.072
						z"/>
					<path style="fill:#91B3FA;" d="M1865.608,1039.13c-0.564,0.788-0.907,1.746-0.935,2.788c-0.116,4.298-0.104,8.619,0.031,12.844
						c0.091,2.772,2.411,4.95,5.184,4.861c2.767-0.097,4.944-2.411,4.861-5.184c-0.131-4.029-0.141-8.152-0.032-12.254
						c0.075-2.774-2.116-5.083-4.888-5.156C1868.098,1036.986,1866.547,1037.82,1865.608,1039.13z"/>
				</g>
				<g>
					<path style="fill:#91B3FA;" d="M1930.511,1109.379c0.285,1.048,1.201,1.8,2.284,1.873l30.891,2.086
						c6.865,12.726,15.809,24.447,26.688,34.599l-5.803,30.393c-0.203,1.066,0.292,2.144,1.233,2.684l32.215,18.476
						c0.941,0.541,2.122,0.424,2.939-0.29l23.303-20.356c14.256,4.264,28.89,6.066,43.341,5.566l17.398,25.61
						c0.61,0.898,1.722,1.309,2.77,1.026l35.845-9.714c1.047-0.284,1.8-1.201,1.873-2.284l2.085-30.891
						c12.726-6.865,24.448-15.809,34.6-26.688l30.392,5.804c1.066,0.203,2.144-0.292,2.684-1.233l18.478-32.216
						c0.54-0.942,0.423-2.122-0.291-2.939l-20.356-23.304c4.264-14.256,6.066-28.89,5.565-43.34l25.612-17.398
						c0.897-0.61,1.31-1.722,1.026-2.769l-9.714-35.845c-0.284-1.047-1.201-1.799-2.283-1.872l-30.892-2.086
						c-6.865-12.726-15.808-24.448-26.688-34.6l5.804-30.393c0.204-1.066-0.291-2.143-1.233-2.684l-32.216-18.477
						c-0.941-0.54-2.121-0.423-2.939,0.291l-23.303,20.356c-14.256-4.264-28.891-6.065-43.341-5.565l-17.398-25.611
						c-0.609-0.898-1.722-1.31-2.77-1.026l-35.845,9.714c-1.048,0.284-1.799,1.201-1.873,2.284l-2.085,30.891
						c-12.726,6.865-24.448,15.809-34.6,26.688l-30.392-5.804c-1.066-0.203-2.143,0.292-2.684,1.233l-18.477,32.216
						c-0.54,0.941-0.423,2.122,0.291,2.939l20.355,23.303c-4.264,14.256-6.065,28.89-5.565,43.341l-25.611,17.398
						c-0.898,0.609-1.309,1.722-1.026,2.769L1930.511,1109.379z"/>
					<g>
						<path style="fill:#BDD0FB;" d="M2055.704,1022.407c7.051-7.305,16.525-11.423,26.675-11.598
							c10.146-0.178,19.757,3.608,27.058,10.662c15.071,14.555,15.484,38.618,0.934,53.735
							c-14.562,15.069-38.664,15.486-53.73,0.932c-7.302-7.051-11.421-16.524-11.598-26.672c-0.143-8.25,2.333-16.144,7.053-22.732
							C2053.182,1025.219,2054.387,1023.772,2055.704,1022.407z M2102.46,1028.699c-5.372-5.189-12.441-7.975-19.909-7.845
							c-7.462,0.13-14.432,3.161-19.619,8.531l0,0c-5.18,5.378-7.971,12.44-7.842,19.908c0.127,7.463,3.161,14.432,8.529,19.617
							c11.086,10.707,28.815,10.4,39.526-0.683c0.965-1.002,1.841-2.055,2.628-3.154
							C2113.709,1053.996,2112.544,1038.438,2102.46,1028.699z"/>
					</g>
					<path style="fill:#BDD0FB;" d="M2006.925,993.482c-1.851,2.584-3.585,5.283-5.203,8.096c-3.207,5.588-5.849,11.507-7.856,17.61
						c-0.088,0.275-0.176,0.55-0.264,0.825c-0.679,2.127,0.133,4.371,1.854,5.608c0.419,0.3,0.892,0.54,1.408,0.704
						c2.643,0.843,5.459-0.627,6.309-3.263c1.82-5.716,4.265-11.26,7.263-16.481l0.001-0.002c0.164-0.287,0.333-0.573,0.499-0.856
						c7.208-12.293,17.207-22.323,29.098-29.486c6.455-3.888,13.474-6.928,20.915-9.017c0.06-0.017,0.121-0.034,0.181-0.051
						c0.187-0.05,0.37-0.103,0.555-0.152c21.808-5.908,44.613-2.974,64.212,8.268c2.538,1.453,4.979,3.024,7.324,4.704
						c15.775,11.306,27.088,27.559,32.236,46.546c5.909,21.809,2.97,44.611-8.271,64.208
						c-11.241,19.582-29.443,33.648-51.249,39.562c-21.808,5.909-44.613,2.974-64.212-8.268c-2.495-1.428-4.907-2.982-7.228-4.645
						c-10.065-7.214-18.436-16.546-24.484-27.361c-0.374-0.666-0.874-1.215-1.457-1.63c-1.531-1.097-3.625-1.284-5.379-0.302
						c-2.418,1.361-3.288,4.413-1.931,6.84c6.768,12.1,16.136,22.545,27.391,30.615c2.6,1.863,5.297,3.599,8.086,5.199
						c21.931,12.578,47.443,15.862,71.844,9.249c24.396-6.614,44.767-22.31,57.335-44.257c12.579-21.927,15.865-47.438,9.248-71.839
						c-5.754-21.242-18.412-39.424-36.062-52.073c-2.62-1.877-5.354-3.637-8.19-5.264
						C2088.446,942.222,2034.839,954.522,2006.925,993.482z"/>
				</g>
			</g>
		</g>
		<g>
			<path style="fill:#BDD0FB;" d="M846.593,557.877c-1.205-14.691,17.354-22.155,26.833-10.866
				c96.254,114.63,320.365,450.273,192.186,975.038c-160.819,658.395-50.633,918.713,104.917,1088.003
				c0,0-229.585-98.207-349.854-363.361C525.388,1595.677,868.011,819.089,846.593,557.877z"/>
			<path style="fill:#FFFFFF;" d="M904.243,776.345c4.713,75.984,7.926,152.021,8.354,228.067
				c0.827,76.03-0.651,152.051-4.497,227.916c-4.136,75.844-9.695,151.599-18.463,227.004
				c-8.429,75.442-20.088,150.437-32.058,225.692c-11.543,75.279-23.599,151.049-27.935,228.284
				c-4.397,77.069,0.335,155.902,19.331,231.533c4.755,18.852,9.872,37.69,16.048,56.039c5.839,18.471,12.497,36.689,19.478,54.78
				c14.146,36.121,30.714,71.364,49.822,105.218c38.393,67.621,87.054,129.342,142.335,183.254
				c5.818,5.674,15.135,5.557,20.81-0.261c5.572-5.713,5.559-14.8,0.048-20.499l-0.039-0.04
				c-13.074-13.493-25.978-27.12-38.23-41.274c-6.241-6.981-12.158-14.224-18.209-21.352c-5.774-7.349-11.836-14.476-17.376-21.996
				c-22.665-29.695-43.218-60.946-61.357-93.561c-36.561-64.982-63.599-135.763-81.873-207.982
				c-8.732-36.224-14.78-73.028-17.974-110.17c-3.166-37.148-3.484-74.597-1.664-112.093
				c3.637-75.034,14.951-150.128,25.951-225.485c10.906-75.388,21.346-151.221,28.651-227.365
				c3.754-38.057,6.825-76.177,9.21-114.334c1.303-19.07,2.236-38.162,3.203-57.25c0.784-19.097,1.463-38.196,1.986-57.295
				c1.95-76.408,1.568-152.838-1.228-229.149c-3.162-76.297-8.347-152.485-16.459-228.345c-0.232-2.169-2.177-3.738-4.345-3.506
				C905.658,772.4,904.117,774.253,904.243,776.345z"/>
		</g>
		<g>
			<g>
				<path style="fill:#91B3FA;" d="M830.217,2428.206c-10.723,24.954-43.446,30.847-62.455,11.448
					c-104.891-107.035-374.087-436.479-315.704-950.518c49.302-434.083,34.785-674.146,20.643-782.669
					c-2.99-22.948,25.053-36.375,41.088-19.689C690.696,870.882,1218.76,1523.995,830.217,2428.206z"/>
				<path style="fill:#FFFFFF;" d="M793.492,2426.276c-0.582,0.339-1.203,0.625-1.863,0.854c-5.531,1.923-11.575-1.001-13.498-6.532
					c-2.18-6.271-217.545-634.009-176.259-1240.669c0.399-5.838,5.456-10.253,11.301-9.861c5.844,0.4,10.256,5.457,9.861,11.302
					c-40.987,602.244,172.963,1226.034,175.127,1232.263C799.857,2418.504,797.79,2423.773,793.492,2426.276z"/>
			</g>
		</g>
		<g>
			<g>
				
					<linearGradient id="SVGID_00000125589600027295954070000011410471928023705764_" gradientUnits="userSpaceOnUse" x1="1822.4995" y1="3237.2866" x2="2176.0271" y2="1721.1964">
					<stop  offset="0" style="stop-color:#09005D"/>
					<stop  offset="1" style="stop-color:#1A0F91"/>
				</linearGradient>
				<polygon style="fill:url(#SVGID_00000125589600027295954070000011410471928023705764_);" points="1586.094,2550.214 
					1523.601,3110.688 2248.639,3110.688 2154.203,2550.214 				"/>
				
					<linearGradient id="SVGID_00000038389062785557356200000017673168737678619521_" gradientUnits="userSpaceOnUse" x1="1958.381" y1="2310.1262" x2="1883.5972" y2="3091.9636">
					<stop  offset="0" style="stop-color:#09005D"/>
					<stop  offset="1" style="stop-color:#1A0F91"/>
				</linearGradient>
				<path style="fill:url(#SVGID_00000038389062785557356200000017673168737678619521_);" d="M2404.813,3225.36H1343.67
					c-28.828,0-50.477-20.522-44.903-42.566l13.616-53.85c4.095-16.195,21.911-28.084,43.072-28.744l1022.98-31.921
					c22.108-0.69,41.683,11.045,46.5,27.876l24.546,85.771C2455.858,3204.208,2434.106,3225.36,2404.813,3225.36z"/>
				
					<linearGradient id="SVGID_00000077288636621818662600000010849092870879293370_" gradientUnits="userSpaceOnUse" x1="1943.0125" y1="420.8958" x2="1881.8268" y2="2630.4426">
					<stop  offset="0" style="stop-color:#09005D"/>
					<stop  offset="1" style="stop-color:#1A0F91"/>
				</linearGradient>
				<path style="fill:url(#SVGID_00000077288636621818662600000010849092870879293370_);" d="M676.541,1169.328v1283.629
					c0,105.596,84.147,191.948,189.707,194.67c468.844,12.09,1676.409,41.404,2122.717,34.825
					c76.709-1.131,138.85-62.516,141.063-139.201c8.606-298.205,22.583-1015.287-29.142-1348.2
					c-10.893-70.108-70.07-122.533-140.983-124.802c-392.832-12.567-1698.892-52.471-2144.992-42.452
					C737.976,1029.526,676.541,1092.372,676.541,1169.328z"/>
				<path style="fill:#7D97F4;" d="M757.085,1163.08v1219.536c0,61.653,49.491,111.889,111.136,112.81l2056.536,30.748
					c61.117,0.914,111.215-48.258,111.443-109.381l4.163-1208.641c0.163-43.705-34.657-79.515-78.349-80.578L846.21,1076.098
					C797.342,1074.909,757.085,1114.198,757.085,1163.08z"/>
				<path style="fill:#91B3FA;" d="M3054.94,2576.632c-0.031,0-0.058,0-0.085,0l-2297.85-46.518
					c-2.167-0.044-3.889-1.839-3.847-4.006c0.046-2.169,1.872-3.878,4.008-3.849l2297.85,46.518c2.167,0.044,3.89,1.839,3.847,4.006
					C3058.818,2574.925,3057.069,2576.632,3054.94,2576.632z"/>
				<path style="fill:#91B3FA;" d="M1840.673,2633.443c-17.829,0-32.336-14.505-32.336-32.335c0-17.829,14.507-32.332,32.336-32.332
					c17.829,0,32.332,14.503,32.332,32.332C1873.005,2618.938,1858.502,2633.443,1840.673,2633.443z M1840.673,2576.632
					c-13.498,0-24.48,10.98-24.48,24.476c0,13.499,10.982,24.479,24.48,24.479c13.495,0,24.476-10.98,24.476-24.479
					C1865.149,2587.612,1854.167,2576.632,1840.673,2576.632z"/>
				<path style="fill:#FFFFFF;" d="M1914.904,3115.257c-2.144,0-3.897-1.72-3.928-3.87c-0.031-2.169,1.703-3.953,3.871-3.986
					l43.836-0.642c2.133-0.032,3.955,1.701,3.986,3.87c0.031,2.169-1.703,3.953-3.871,3.986l-43.836,0.642
					C1914.943,3115.257,1914.923,3115.257,1914.904,3115.257z"/>
				<path style="fill:#91B3FA;" d="M1338.053,3196.14c-0.203,0-0.414-0.015-0.621-0.05c-2.144-0.341-3.602-2.355-3.26-4.498
					l6.252-39.166c3.395-21.274,21.496-36.941,43.034-37.256l464.948-6.799c2.075-0.13,3.955,1.701,3.985,3.871
					c0.031,2.169-1.703,3.953-3.87,3.985l-464.948,6.799c-17.714,0.259-32.601,13.143-35.393,30.639l-6.253,39.166
					C1341.621,3194.763,1339.952,3196.14,1338.053,3196.14z"/>
			</g>
			<g>
				<g>
					<path style="fill:#BDD0FB;" d="M2514.255,1301.185c-25.369,0-46.007-20.638-46.007-46.007c0-25.369,20.638-46.01,46.007-46.01
						s46.007,20.641,46.007,46.01C2560.262,1280.547,2539.624,1301.185,2514.255,1301.185z M2514.255,1222.765
						c-17.87,0-32.41,14.54-32.41,32.413c0,17.87,14.54,32.41,32.41,32.41s32.41-14.54,32.41-32.41
						C2546.665,1237.305,2532.125,1222.765,2514.255,1222.765z"/>
					<path style="fill:#BDD0FB;" d="M2666.965,1301.185c-25.368,0-46.01-20.638-46.01-46.007c0-25.369,20.642-46.01,46.01-46.01
						c25.369,0,46.007,20.641,46.007,46.01C2712.972,1280.547,2692.334,1301.185,2666.965,1301.185z M2666.965,1222.765
						c-17.873,0-32.413,14.54-32.413,32.413c0,17.87,14.54,32.41,32.413,32.41c17.87,0,32.41-14.54,32.41-32.41
						C2699.375,1237.305,2684.835,1222.765,2666.965,1222.765z"/>
					<path style="fill:#BDD0FB;" d="M2819.672,1301.185c-25.369,0-46.007-20.638-46.007-46.007c0-25.369,20.638-46.01,46.007-46.01
						s46.007,20.641,46.007,46.01C2865.679,1280.547,2845.04,1301.185,2819.672,1301.185z M2819.672,1222.765
						c-17.869,0-32.409,14.54-32.409,32.413c0,17.87,14.54,32.41,32.409,32.41c17.87,0,32.41-14.54,32.41-32.41
						C2852.081,1237.305,2837.541,1222.765,2819.672,1222.765z"/>
				</g>
				<path style="fill:#BDD0FB;" d="M2106.683,2263.405l-1189.124,8.023c-34.103,0.23-61.514-31.073-60.358-68.928l22.718-744.095
					c1.035-33.899,26.16-60.762,56.699-60.619l1157.708,5.422c31.221,0.146,56.399,28.374,56.237,63.049l-3.523,752.287
					C2146.924,2243.245,2128.922,2263.255,2106.683,2263.405z"/>
				<path style="fill:#BDD0FB;" d="M2132.949,2382.626H874.81c-8.777,0-15.893-8.239-15.893-18.401v-33.622
					c0-10.258,7.245-18.535,16.104-18.399l1258.138,19.306c8.695,0.133,15.683,8.332,15.683,18.399v14.316
					C2148.842,2374.388,2141.726,2382.626,2132.949,2382.626z"/>
				<g>
					<path style="fill:#BDD0FB;" d="M2912.469,2463.913c-0.392,0-0.783-0.003-1.178-0.01l-2045.399-36.875
						c-42.013-0.76-75.635-35.56-74.947-77.573l18.58-1135.664c0.378-23.042,9.743-44.526,26.368-60.487
						c16.625-15.964,38.488-24.562,61.513-23.888l0,0l2004.575,48.659c41.452,1.006,73.922,34.272,73.922,75.734v1146.638
						c0,17.169-6.746,33.246-18.995,45.277C2944.938,2457.48,2929.197,2463.913,2912.469,2463.913z M895.276,1142.988
						c-18.726,0-36.41,7.107-49.967,20.124c-13.992,13.435-21.87,31.513-22.188,50.907l-18.58,1135.664
						c-0.564,34.528,27.065,63.126,61.596,63.75l2045.399,36.875c13.375,0.269,26.215-4.83,35.842-14.281
						c9.624-9.454,14.925-22.089,14.925-35.577V1253.81c0-34.02-26.643-61.317-60.656-62.143l-2004.575-48.659
						C896.475,1142.994,895.874,1142.988,895.276,1142.988z"/>
				</g>
				<g>
					<path style="fill:#BDD0FB;" d="M2858.867,1759.972h-0.1l-584.369-11.29c-27.214-0.525-49.356-23.098-49.356-50.322v-251.306
						c0-36.24,29.482-65.722,65.722-65.722h568.102c36.24,0,65.722,29.482,65.722,65.722v247.193
						C2924.589,1730.487,2895.107,1759.972,2858.867,1759.972z M2290.764,1391.529c-30.617,0-55.524,24.907-55.524,55.524v251.306
						c0,21.707,17.654,39.706,39.358,40.125l584.315,11.29c30.594-0.023,55.478-24.924,55.478-55.527v-247.193
						c0-30.617-24.907-55.524-55.524-55.524H2290.764z"/>
				</g>
				<path style="opacity:0.4;fill:#FFFFFF;" d="M2897.116,2385.021h-644.603c-12.356,0-22.373-10.017-22.373-22.373v-30.468
					c0-12.536,10.299-22.625,22.832-22.368l644.603,13.221c12.175,0.25,21.914,10.191,21.914,22.368v17.246
					C2919.489,2375.005,2909.472,2385.021,2897.116,2385.021z"/>
				<g>
					<path style="fill:#BDD0FB;" d="M2886.532,2276.4c-0.189,0-0.382,0-0.571-0.003l-625.14-9.093
						c-20.691-0.302-37.522-17.378-37.522-38.07v-179.878c0-10.278,4.033-19.911,11.356-27.125
						c7.18-7.074,16.645-10.948,26.703-10.948c0.199,0,0.398,0,0.594,0.003l625.14,9.517c20.675,0.315,37.495,17.395,37.495,38.07
						v179.453c0,10.274-4.03,19.905-11.35,27.118C2906.059,2272.523,2896.591,2276.4,2886.532,2276.4z M2261.362,2021.482
						c-7.363,0-14.291,2.838-19.552,8.017c-5.361,5.282-8.313,12.333-8.313,19.858v179.878c0,15.147,12.323,27.653,27.47,27.872
						l625.14,9.093c7.496,0.259,14.616-2.739,19.974-8.017c5.358-5.281,8.309-12.333,8.309-19.855v-179.453
						c0-15.138-12.316-27.639-27.453-27.872l-625.137-9.517C2261.654,2021.482,2261.508,2021.482,2261.362,2021.482z"/>
				</g>
				<g>
					<path style="fill:#BDD0FB;" d="M2876.458,1984.671c-0.196,0-0.388,0-0.584-0.003l-603.911-9.368
						c-19.825-0.312-35.952-16.694-35.952-36.519v-139.966c0-9.909,3.904-19.184,10.988-26.112
						c7.084-6.931,16.522-10.689,26.348-10.4l603.908,13.518c19.689,0.442,35.706,16.821,35.706,36.513v135.82
						c0,9.863-3.871,19.104-10.898,26.023C2895.174,1980.956,2886.101,1984.671,2876.458,1984.671z M2272.51,1772.493
						c-6.911,0-13.418,2.649-18.381,7.502c-5.109,4.993-7.921,11.675-7.921,18.819v139.966c0,14.291,11.625,26.099,25.913,26.321
						l603.911,9.368c7.051,0.143,13.806-2.569,18.875-7.562c5.066-4.986,7.854-11.649,7.854-18.756v-135.82
						c0-14.195-11.546-25.999-25.734-26.315l-603.908-13.518C2272.918,1772.493,2272.712,1772.493,2272.51,1772.493z"/>
				</g>
				<path style="fill:#BDD0FB;" d="M905.741,1185.336l1461.74,39.957c15.929,0.436,28.615,13.474,28.615,29.408v75.023
					c0,16.333-13.304,29.539-29.636,29.418l-1474.86-10.886c-16.162-0.119-29.202-13.255-29.202-29.418v-91.329
					C862.399,1203.757,881.998,1184.687,905.741,1185.336z"/>
				
					<linearGradient id="SVGID_00000000191343613962410920000018321029298615592848_" gradientUnits="userSpaceOnUse" x1="878.6448" y1="1279.3168" x2="2381.9944" y2="1279.3168">
					<stop  offset="0" style="stop-color:#DAE3FE"/>
					<stop  offset="1" style="stop-color:#E9EFFD"/>
				</linearGradient>
				<path style="fill:url(#SVGID_00000000191343613962410920000018321029298615592848_);" d="M2348.267,1333.594
					c-0.083,0-0.163,0-0.246,0L912.15,1327.45c-18.789-0.083-33.505-9.62-33.505-21.714v-58.983c0-4.365,1.892-8.535,5.471-12.057
					c6.327-6.231,17.219-9.829,29.133-9.65l1435.868,22.766c18.743,0.299,32.878,9.63,32.878,21.707v42.365
					c0,4.325-1.859,8.462-5.378,11.964C2370.479,1329.959,2359.892,1333.594,2348.267,1333.594z M912.399,1235.237
					c-8.711,0-16.95,2.609-21.133,6.726c-1.607,1.583-2.423,3.197-2.423,4.79v58.983c0,5.388,9.985,11.456,23.354,11.516
					l1435.871,6.145c0.063,0,0.126,0,0.189,0c8.731,0,17.023-2.649,21.166-6.775c1.573-1.57,2.374-3.164,2.374-4.737v-42.365
					c0-5.272-9.381-11.297-22.839-11.509l-1435.868-22.766C912.857,1235.24,912.628,1235.237,912.399,1235.237z"/>
			</g>
			<g>
				
					<linearGradient id="SVGID_00000163770487031404727530000000917281833215358891_" gradientUnits="userSpaceOnUse" x1="1091.5475" y1="1032.0057" x2="556.2576" y2="1969.4156">
					<stop  offset="0" style="stop-color:#4F52FF"/>
					<stop  offset="1" style="stop-color:#4042E2"/>
				</linearGradient>
				<path style="fill:url(#SVGID_00000163770487031404727530000000917281833215358891_);" d="M949.554,1310.787l-106.154,108.068
					c-4.452,4.532-4.1,11.897,0.765,15.984l0.799,0.671c4.304,3.615,10.729,3.036,14.317-1.291l97.202-117.238L949.554,1310.787z"/>
				
					<linearGradient id="SVGID_00000157292813363687516870000007821544768636661405_" gradientUnits="userSpaceOnUse" x1="2465.0063" y1="2025.6342" x2="2605.5466" y2="2025.6342" gradientTransform="matrix(0.9025 -0.4307 0.4307 0.9025 -2165.3477 518.2888)">
					<stop  offset="0" style="stop-color:#53D8FF"/>
					<stop  offset="1" style="stop-color:#3840F7"/>
				</linearGradient>
				<path style="opacity:0.2;fill:url(#SVGID_00000157292813363687516870000007821544768636661405_);" d="M1058.599,1224.214
					c16.414,34.394,1.326,75.825-33.698,92.54c-35.025,16.715-76.724,2.385-93.139-32.008c-16.413-34.393-1.326-75.825,33.699-92.54
					C1000.485,1175.491,1042.185,1189.821,1058.599,1224.214z"/>
				
					<linearGradient id="SVGID_00000146481143845739276660000011787433728364204464_" gradientUnits="userSpaceOnUse" x1="1114.678" y1="1045.2136" x2="579.3878" y2="1982.6239">
					<stop  offset="0" style="stop-color:#4F52FF"/>
					<stop  offset="1" style="stop-color:#4042E2"/>
				</linearGradient>
				<path style="fill:url(#SVGID_00000146481143845739276660000011787433728364204464_);" d="M962.11,1185.186
					c-38.973,18.599-55.761,64.702-37.497,102.972c18.264,38.27,64.664,54.217,103.638,35.617
					c38.973-18.6,55.761-64.702,37.497-102.972C1047.484,1182.532,1001.083,1166.586,962.11,1185.186z M1023.393,1313.595
					c-33.248,15.868-72.833,2.264-88.414-30.385c-15.582-32.648-1.26-71.979,31.989-87.845
					c33.248-15.868,72.833-2.264,88.414,30.384C1070.963,1258.398,1056.641,1297.728,1023.393,1313.595z"/>
			</g>
		</g>
		<g>
			
				<linearGradient id="SVGID_00000021817421061671941590000007794904542648589722_" gradientUnits="userSpaceOnUse" x1="2293.1738" y1="1364.8638" x2="1426.2628" y2="2680.5276">
				<stop  offset="0" style="stop-color:#FF928E"/>
				<stop  offset="1" style="stop-color:#FE7062"/>
			</linearGradient>
			<path style="fill:url(#SVGID_00000021817421061671941590000007794904542648589722_);" d="M2258.871,1877.016h-366.659
				c-87.34,0-158.397-71.056-158.397-158.397v-46.932c0-87.341,71.057-158.397,158.397-158.397h366.659
				c87.34,0,158.397,71.056,158.397,158.397v46.932C2417.267,1805.96,2346.211,1877.016,2258.871,1877.016z M1892.212,1571.956
				c-54.992,0-99.731,44.74-99.731,99.731v46.932c0,54.992,44.74,99.731,99.731,99.731h366.659c54.992,0,99.731-44.74,99.731-99.731
				v-46.932c0-54.992-44.74-99.731-99.731-99.731H1892.212z"/>
			
				<linearGradient id="SVGID_00000111174650638858546220000012152229617790502568_" gradientUnits="userSpaceOnUse" x1="1552.6049" y1="1716.8073" x2="1244.2806" y2="3207.0371">
				<stop  offset="0" style="stop-color:#4F52FF"/>
				<stop  offset="1" style="stop-color:#4042E2"/>
			</linearGradient>
			<path style="fill:url(#SVGID_00000111174650638858546220000012152229617790502568_);" d="M1740.415,1877.016h-366.659
				c-87.34,0-158.397-71.056-158.397-158.397v-46.932c0-87.341,71.057-158.397,158.397-158.397h366.659
				c87.34,0,158.397,71.056,158.397,158.397v46.932C1898.811,1805.96,1827.755,1877.016,1740.415,1877.016z M1766.509,1575.418
				c-8.32-2.258-17.069-3.463-26.094-3.463h-366.659c-54.992,0-99.731,44.74-99.731,99.731v46.932
				c0,54.992,44.74,99.731,99.731,99.731h366.659c54.992,0,99.731-44.74,99.731-99.731v-46.932
				C1840.146,1625.72,1808.886,1586.917,1766.509,1575.418L1766.509,1575.418z"/>
			
				<linearGradient id="SVGID_00000051341661169934816370000002304099647978231197_" gradientUnits="userSpaceOnUse" x1="2257.7476" y1="1341.521" x2="1390.8379" y2="2657.1826">
				<stop  offset="0" style="stop-color:#FF928E"/>
				<stop  offset="1" style="stop-color:#FE7062"/>
			</linearGradient>
			<path style="fill:url(#SVGID_00000051341661169934816370000002304099647978231197_);" d="M1805.053,1623.288
				c17.053-30.587,49.722-51.332,87.158-51.332h366.659c37.437,0,70.105,20.745,87.158,51.332h63.667
				c-20.502-63.741-80.358-109.998-150.825-109.998h-366.659c-70.466,0-130.323,46.257-150.825,109.998H1805.053z"/>
		</g>
		<g>
			<g>
				
					<linearGradient id="SVGID_00000049211931432345302850000007275929558013787793_" gradientUnits="userSpaceOnUse" x1="-2352.874" y1="52.0159" x2="-2028.8938" y2="-375.7386" gradientTransform="matrix(-1 0 0 1 -2129.7014 0)">
					<stop  offset="0" style="stop-color:#FEBBBA"/>
					<stop  offset="1" style="stop-color:#FF928E"/>
				</linearGradient>
				<path style="fill:url(#SVGID_00000049211931432345302850000007275929558013787793_);" d="M1708.113,2084.502
					c1.033,3.284-10.929,8.284-17.972-5.146c-0.247-6.437-4.161-34.014-0.315-39.257c20.485-27.929,60.202-62.939,60.202-62.939
					c6.713,6.623,1.182,13.13,1.182,13.13l-19.267,20.071c4.03,7.283,8.946,13.43,11.25,22.239c1.745,6.671,0.678,13.8-2.692,19.871
					c-3.382,6.093-7.996,14.013-12.359,20.212C1719.887,2084.414,1708.113,2084.502,1708.113,2084.502z"/>
				
					<linearGradient id="SVGID_00000084513442495177235370000012092013745602688429_" gradientUnits="userSpaceOnUse" x1="1795.3763" y1="1990.5865" x2="1516.9559" y2="2198.1365">
					<stop  offset="0" style="stop-color:#FEBBBA"/>
					<stop  offset="1" style="stop-color:#FF928E"/>
				</linearGradient>
				<path style="fill:url(#SVGID_00000084513442495177235370000012092013745602688429_);" d="M1723.517,2023.383l-17.558,14.884
					l-5.513,14.819l15.655,17.367c0,0,5.263-29.404,9.175-35.768C1729.189,2028.322,1727.16,2025.244,1723.517,2023.383z"/>
			</g>
			<g>
				
					<linearGradient id="SVGID_00000181060017092448302240000001349704080675094419_" gradientUnits="userSpaceOnUse" x1="8603.5977" y1="3145.9482" x2="8175.2822" y2="3611.8354" gradientTransform="matrix(1 0 0 1 -7104.9834 0)">
					<stop  offset="0" style="stop-color:#4F52FF"/>
					<stop  offset="1" style="stop-color:#4042E2"/>
				</linearGradient>
				<path style="fill:url(#SVGID_00000181060017092448302240000001349704080675094419_);" d="M1363.223,3180.654
					c0,0-4.436,25.112-6.61,49.969c-0.85,9.714,6.639,18.149,16.383,18.556c33.103,1.378,103.912,4.059,129.32,2.925
					c3.82-0.17,6.317-4.081,4.904-7.633l0,0c-1.185-2.976-3.47-5.384-6.381-6.721l-116.963-53.756L1363.223,3180.654z"/>
				
					<linearGradient id="SVGID_00000172415141036275244080000006743004466843306140_" gradientUnits="userSpaceOnUse" x1="8464.5723" y1="3180.5503" x2="8502.6172" y2="3180.5503" gradientTransform="matrix(1 0 0 1 -7104.9834 0)">
					<stop  offset="0" style="stop-color:#FEBBBA"/>
					<stop  offset="1" style="stop-color:#FF928E"/>
				</linearGradient>
				<path style="fill:url(#SVGID_00000172415141036275244080000006743004466843306140_);" d="M1359.589,3165.899l3.564,30.036
					c0,0,20.489,9.538,34.481-1.202l-8.485-33.473L1359.589,3165.899z"/>
				
					<linearGradient id="SVGID_00000104687258997383232780000008016564526508640435_" gradientUnits="userSpaceOnUse" x1="8637.3223" y1="2619.0793" x2="8272.8672" y2="3113.0518" gradientTransform="matrix(1 0 0 1 -7104.9834 0)">
					<stop  offset="0" style="stop-color:#4F52FF"/>
					<stop  offset="1" style="stop-color:#4042E2"/>
				</linearGradient>
				<path style="fill:url(#SVGID_00000104687258997383232780000008016564526508640435_);" d="M1362.267,2601.201
					c-1.54,7.844-8.263,391.429,32.739,563.326c0.669,2.805-0.753,5.696-3.422,6.787c-6.288,2.57-18.618,6.29-33.393,6.787
					c-4.576,0.154-8.678-2.82-9.969-7.212c-11.72-39.883-67.882-239.707-75.209-430.594c-8.186-213.297,0-7.263,0-7.263
					l4.802-131.847L1362.267,2601.201z"/>
				
					<linearGradient id="SVGID_00000067951508543699386650000015358266795838156426_" gradientUnits="userSpaceOnUse" x1="8507.5107" y1="3057.6128" x2="8079.1978" y2="3523.4976" gradientTransform="matrix(1 0 0 1 -7104.9834 0)">
					<stop  offset="0" style="stop-color:#4F52FF"/>
					<stop  offset="1" style="stop-color:#4042E2"/>
				</linearGradient>
				<path style="fill:url(#SVGID_00000067951508543699386650000015358266795838156426_);" d="M1228.676,3193.755
					c0,0-7.061,12.677-13.897,46.364c-1.234,6.084,3.017,11.906,9.195,12.513c10.93,1.075,27.758,2.457,41.236,2.365
					c6.214-0.043,11.063-5.453,10.314-11.622c-1.493-12.296-6.145-32.469-20.513-48.192L1228.676,3193.755z"/>
				
					<linearGradient id="SVGID_00000111180689721703089380000011726621247197965714_" gradientUnits="userSpaceOnUse" x1="8327.458" y1="3178.5996" x2="8360.3066" y2="3178.5996" gradientTransform="matrix(1 0 0 1 -7104.9834 0)">
					<stop  offset="0" style="stop-color:#FEBBBA"/>
					<stop  offset="1" style="stop-color:#FF928E"/>
				</linearGradient>
				<path style="fill:url(#SVGID_00000111180689721703089380000011726621247197965714_);" d="M1222.475,3155.121l8.327,45.423
					c0,0,8.234,6.125,24.521,1.685l-3.974-48.873L1222.475,3155.121z"/>
				
					<linearGradient id="SVGID_00000075861937524559942160000010344552182678164618_" gradientUnits="userSpaceOnUse" x1="8572.3682" y1="2571.1553" x2="8207.9121" y2="3065.1277" gradientTransform="matrix(1 0 0 1 -7104.9834 0)">
					<stop  offset="0" style="stop-color:#4F52FF"/>
					<stop  offset="1" style="stop-color:#4042E2"/>
				</linearGradient>
				<path style="fill:url(#SVGID_00000075861937524559942160000010344552182678164618_);" d="M1199.979,2612.972
					c-33.535,202.383,7.274,500.206,21.037,558.497c0.842,3.569,3.723,6.303,7.34,6.903c6.143,1.018,16.258,1.849,26.229-1.047
					c3.435-0.997,5.849-4.096,5.989-7.672c1.847-47.126-1.477-336.438,29.77-450.775c1.583-5.794,5.122-10.848,10.018-14.328
					l60.647-43.115l4.649-69.692L1199.979,2612.972z"/>
				<g>
					
						<linearGradient id="SVGID_00000121244163452684009600000008275950654625607854_" gradientUnits="userSpaceOnUse" x1="501.4372" y1="13688.542" x2="756.3849" y2="13324.8164" gradientTransform="matrix(1 0 0 1 -7104.9834 0)">
						<stop  offset="0" style="stop-color:#FF928E"/>
						<stop  offset="1" style="stop-color:#FE7062"/>
					</linearGradient>
					<path style="fill:url(#SVGID_00000121244163452684009600000008275950654625607854_);" d="M1413.661,2229.496
						c-100.496-1.66-211.382,26.387-211.382,26.387c-29.956,174.792-5.239,376.402-5.239,376.402
						c77.802,20.403,165.567-12.474,165.567-12.474c12.931-73.059,73.264-278.67,73.264-278.67
						c49.102-6.094,89.552-20.261,122.862-38.991c-25.409-29.452-37.387-66.928-42.589-89.082
						C1480.612,2224.11,1444.658,2230.008,1413.661,2229.496z"/>
					
						<linearGradient id="SVGID_00000145753876062132365180000018255191859493416603_" gradientUnits="userSpaceOnUse" x1="-2219.7983" y1="152.8103" x2="-1895.8185" y2="-274.9436" gradientTransform="matrix(-1 0 0 1 -2129.7014 0)">
						<stop  offset="0" style="stop-color:#FEBBBA"/>
						<stop  offset="1" style="stop-color:#FF928E"/>
					</linearGradient>
					<path style="fill:url(#SVGID_00000145753876062132365180000018255191859493416603_);" d="M1710.509,2081.47
						c-9.872-11.923-22.367-6.283-22.367-6.283c-14.789,62.47-92.333,113.122-171.998,137.881
						c5.202,22.153,17.181,59.63,42.589,89.082C1690.946,2227.812,1710.509,2081.47,1710.509,2081.47z"/>
				</g>
				
					<linearGradient id="SVGID_00000051384256120940538530000012035537376462542734_" gradientUnits="userSpaceOnUse" x1="389.7556" y1="13610.2891" x2="644.7031" y2="13246.5635" gradientTransform="matrix(1 0 0 1 -7104.9834 0)">
					<stop  offset="0" style="stop-color:#FF928E"/>
					<stop  offset="1" style="stop-color:#FE7062"/>
				</linearGradient>
				<path style="fill:url(#SVGID_00000051384256120940538530000012035537376462542734_);" d="M1240.825,2353.193l-38.546-97.31
					c0,0-93.869,63.78-109.307,144.646c17.737,1.306,50.012,5.92,81.603,21.871
					C1181.517,2384.216,1240.825,2353.193,1240.825,2353.193z"/>
				
					<linearGradient id="SVGID_00000111169849892516293760000012710166768184189353_" gradientUnits="userSpaceOnUse" x1="1217.6486" y1="2359.1787" x2="1447.9778" y2="2037.7299">
					<stop  offset="0" style="stop-color:#FEBBBA"/>
					<stop  offset="1" style="stop-color:#FF928E"/>
				</linearGradient>
				<path style="fill:url(#SVGID_00000111169849892516293760000012710166768184189353_);" d="M1311.867,2147.908l-31.977,92.474
					c-0.529,1.531,0.1,3.228,1.519,4.013c8.716,4.819,40.12,18.749,77.965-5.245c3.942-2.5,6.626-6.576,7.225-11.206l10.355-80.036
					H1311.867z"/>
				<g>
					
						<linearGradient id="SVGID_00000009580345025979379290000013421568301232626054_" gradientUnits="userSpaceOnUse" x1="561.7151" y1="4444.6479" x2="525.3743" y2="4324.7876" gradientTransform="matrix(0.746 -0.6659 0.6659 0.746 -1978.6482 -803.1727)">
						<stop  offset="0" style="stop-color:#FEBBBA"/>
						<stop  offset="1" style="stop-color:#FF928E"/>
					</linearGradient>
					<path style="fill:url(#SVGID_00000009580345025979379290000013421568301232626054_);" d="M1381.442,2062.275
						c0,0,35.114,66.097,30.613,92.797c-4.501,26.699-48.019,24.783-86.02,3.098l-26.554-71.37L1381.442,2062.275z"/>
					
						<linearGradient id="SVGID_00000014618840360935702850000000217336682569753009_" gradientUnits="userSpaceOnUse" x1="-1511.1812" y1="2143.0261" x2="-1107.3087" y2="2059.4661" gradientTransform="matrix(-1 0 0 1 109.9047 0)">
						<stop  offset="0" style="stop-color:#09005D"/>
						<stop  offset="1" style="stop-color:#1A0F91"/>
					</linearGradient>
					<path style="fill:url(#SVGID_00000014618840360935702850000000217336682569753009_);" d="M1327.715,2123.121
						c1.544-0.684,2.114-2.574,1.189-3.987c-2.814-4.298-8.087-13.065-9.77-20.741c0,0-6.312-4.043,16.067-9.399
						c22.378-5.357,55.75-13.671,62.765-32.719c6.839-18.571-11.13-65.276-39.798-28.063c-1.09,1.416-3.227,1.447-4.316,0.03
						c-4.7-6.117-17.056-18.813-34.21-11.116c-16.053,7.203-17.86,18.966-17.64,24.895c0.065,1.743-1.495,3.1-3.209,2.772
						c-8.116-1.547-27.593-2.877-36.683,17.102c-7.488,16.457-2.621,25.773,1.811,30.33c1.437,1.476,0.807,3.907-1.162,4.51
						c-5.334,1.633-12.221,6.156-11.532,18.653c0.953,17.276,20.269,15.754,25.769,14.967c0.902-0.129,1.809,0.18,2.42,0.855
						c4.715,5.218,25.961,27.376,48.956,30.047c1.991,0.231,3.534-1.735,2.882-3.63l-9.952-28.927
						c-0.462-1.344,0.181-2.817,1.479-3.393L1327.715,2123.121z"/>
					
						<linearGradient id="SVGID_00000138538294053304804180000005398018396264925104_" gradientUnits="userSpaceOnUse" x1="524.5659" y1="4444.0898" x2="491.8694" y2="4336.2495" gradientTransform="matrix(0.746 -0.6659 0.6659 0.746 -1978.6482 -803.1727)">
						<stop  offset="0" style="stop-color:#FEBBBA"/>
						<stop  offset="1" style="stop-color:#FF928E"/>
					</linearGradient>
					<path style="fill:url(#SVGID_00000138538294053304804180000005398018396264925104_);" d="M1331.715,2127.227
						c0,0-25-17.154-26.827-2.708c-1.827,14.445,22.514,20.924,34.569,15.538L1331.715,2127.227z"/>
				</g>
				
					<linearGradient id="SVGID_00000023963586122476408680000003026248417531720337_" gradientUnits="userSpaceOnUse" x1="2087.6274" y1="2818.9102" x2="2011.6945" y2="3259.3215" gradientTransform="matrix(1 0 0 1 -1006.3037 0)">
					<stop  offset="0" style="stop-color:#FEBBBA"/>
					<stop  offset="1" style="stop-color:#FF928E"/>
				</linearGradient>
				<path style="fill:url(#SVGID_00000023963586122476408680000003026248417531720337_);" d="M1174.574,2422.4
					c0,0-32.809,148.014-3.09,231.227c-36.434,16.893-29.704,13.709-29.704,13.709s-72.079-210.6-48.809-266.807
					C1138.851,2395.662,1161.609,2407.989,1174.574,2422.4z"/>
				
					<linearGradient id="SVGID_00000138571625657334038130000005440448264655464584_" gradientUnits="userSpaceOnUse" x1="2145.7107" y1="2828.925" x2="2069.7778" y2="3269.3354" gradientTransform="matrix(1 0 0 1 -1006.3037 0)">
					<stop  offset="0" style="stop-color:#FEBBBA"/>
					<stop  offset="1" style="stop-color:#FF928E"/>
				</linearGradient>
				<path style="fill:url(#SVGID_00000138571625657334038130000005440448264655464584_);" d="M1171.485,2653.627
					c0,0,18.775,24.3,17.273,33.979c-1.502,9.679-1.86,13.622-1.86,13.622s-9.434-6.452-8.84-14.698
					c1.312,26.169,10.07,55.922,2.106,54.488c-7.964-1.434-49.188-39.433-39.868-79.94
					C1161.446,2646.381,1167.375,2647.979,1171.485,2653.627z"/>
			</g>
		</g>
		<g style="opacity:0.9;">
			<path style="fill:#91B3FA;" d="M2160.604,3236.618c-219.992-109.206-389.705-280.995-408.637-640.463
				C1751.967,2596.156,2324.547,2787.319,2160.604,3236.618z"/>
			<path style="fill:#BDD0FB;" d="M2125.023,3155.973c-1.205,0-2.331-0.749-2.753-1.951
				c-99.989-285.046-293.865-449.976-295.812-451.609c-1.233-1.037-1.396-2.877-0.36-4.11c1.034-1.233,2.871-1.401,4.109-0.362
				c1.958,1.643,197.025,167.528,297.57,454.149c0.533,1.521-0.268,3.184-1.787,3.717
				C2125.67,3155.922,2125.344,3155.973,2125.023,3155.973z"/>
		</g>
		<g>
			<path style="fill:#BDD0FB;" d="M2138.378,3227.733c-154.623,14.27-302.968-21.825-432.486-208.957
				C1705.892,3018.776,2077.438,2931.558,2138.378,3227.733z"/>
			
				<linearGradient id="SVGID_00000116225729310160728560000018181192030714630567_" gradientUnits="userSpaceOnUse" x1="1761.5171" y1="3106.7053" x2="2053.5632" y2="3106.7053">
				<stop  offset="0" style="stop-color:#DAE3FE"/>
				<stop  offset="1" style="stop-color:#E9EFFD"/>
			</linearGradient>
			<path style="fill:url(#SVGID_00000116225729310160728560000018181192030714630567_);" d="M2050.648,3178.315
				c-0.827,0-1.649-0.35-2.226-1.031c-87.267-102.866-282.5-136.06-284.462-136.385c-1.589-0.262-2.666-1.76-2.404-3.35
				c0.262-1.592,1.742-2.709,3.352-2.404c1.982,0.325,199.324,33.883,287.963,138.367c1.041,1.228,0.89,3.068-0.337,4.11
				C2051.986,3178.087,2051.315,3178.315,2050.648,3178.315z"/>
		</g>
		<g>
			<g>
				
					<linearGradient id="SVGID_00000021818929434981735490000005425850088679970963_" gradientUnits="userSpaceOnUse" x1="1811.4857" y1="3801.7629" x2="3579.1235" y2="823.9758">
					<stop  offset="0" style="stop-color:#09005D"/>
					<stop  offset="1" style="stop-color:#1A0F91"/>
				</linearGradient>
				<path style="fill:url(#SVGID_00000021818929434981735490000005425850088679970963_);" d="M2165.315,2022.189
					c-31.61,2.619-55.944,28.984-56.164,60.701c-1.341,193.965-4.977,863.004,6.7,1099.86c1.237,25.093,21.724,44.884,46.844,45.257
					c124.247,1.844,481.643,5.759,684.597-6.392c42.272-2.531,75.301-37.398,75.422-79.746
					c0.583-203.576-0.334-776.112-27.154-1037.92c-3.213-31.369-28.318-55.946-59.745-58.523
					C2700.344,2034.315,2340.582,2007.666,2165.315,2022.189z"/>
				
					<linearGradient id="SVGID_00000162349937506504057360000008972936931042701759_" gradientUnits="userSpaceOnUse" x1="3333.1814" y1="959.8846" x2="2252.2019" y2="3081.0505">
					<stop  offset="0" style="stop-color:#FF928E"/>
					<stop  offset="1" style="stop-color:#FE7062"/>
				</linearGradient>
				<path style="fill:url(#SVGID_00000162349937506504057360000008972936931042701759_);" d="M2160.683,2142.23
					c-3.944,158.906-15.895,687.53-5.614,882.741c1.502,28.533,24.417,51.216,52.966,52.375
					c117.544,4.773,418.99,14.542,590.972-2.328c30.968-3.038,54.856-28.553,55.975-59.65
					c5.833-162.15,22.102-654.465,12.141-847.492c-1.589-30.793-25.906-55.53-56.661-57.738
					c-127.235-9.135-453.979-30.442-600.192-19.841C2182.824,2092.288,2161.366,2114.72,2160.683,2142.23z"/>
				<path style="opacity:0.09;fill:#FFFFFF;" d="M2193.121,2178.307c-3.482,145.282-14.017,628.583-4.741,807.063
					c1.356,26.087,21.894,46.833,47.474,47.902c105.318,4.402,375.408,13.432,529.494-1.935
					c27.746-2.767,49.14-26.087,50.132-54.518c5.173-148.247,19.588-598.351,10.601-774.833
					c-1.434-28.154-23.229-50.778-50.786-52.807c-114.002-8.394-406.762-27.981-537.761-18.336
					C2212.942,2132.653,2193.724,2153.155,2193.121,2178.307z"/>
				
					<linearGradient id="SVGID_00000120540920995229249790000011147439052589576349_" gradientUnits="userSpaceOnUse" x1="2637.3445" y1="1451.1351" x2="2463.9795" y2="2219.3787">
					<stop  offset="0" style="stop-color:#4F52FF"/>
					<stop  offset="1" style="stop-color:#4042E2"/>
				</linearGradient>
				<path style="fill:url(#SVGID_00000120540920995229249790000011147439052589576349_);" d="M2415.572,2051.604L2415.572,2051.604
					c0.106,5.949,4.83,10.773,10.777,10.978c29.356,1.012,112.055,3.881,149.017,5.364c7.288,0.292,12.885-6.354,11.376-13.49
					l-0.258-1.218c-1.03-4.869-5.148-8.475-10.111-8.84c-25-1.841-100.425-6.836-150.292-4.163
					C2420.091,2040.556,2415.465,2045.606,2415.572,2051.604z"/>
			</g>
			<path style="opacity:0.4;fill:#FFFFFF;" d="M2723.533,2804.412l-449.739-5.303c-34.252-0.404-61.593-28.676-60.851-62.923
				l10.481-483.311c0.733-33.802,28.576-60.693,62.383-60.251l446.613,5.845c34.065,0.446,61.297,28.461,60.779,62.524
				l-7.355,482.77C2785.326,2777.692,2757.463,2804.812,2723.533,2804.412z"/>
			<g>
				<path style="fill:#FFFFFF;" d="M2520.523,2657.75c-69.451,1.241-126.823-52.479-128.025-119.75
					c-1.205-67.401,54.211-123.139,123.528-124.378c69.452-1.241,126.825,52.481,128.027,119.752l0.002,0.13
					C2645.257,2600.775,2589.84,2656.511,2520.523,2657.75z M2516.288,2420.827c-65.356,1.168-117.498,53.612-116.367,116.91
					c1.134,63.426,55.116,113.974,120.338,112.808c65.357-1.168,117.5-53.613,116.368-116.908l-0.002-0.131
					C2635.495,2470.209,2581.512,2419.661,2516.288,2420.827z"/>
				<path style="fill:#FFFFFF;" d="M2484.693,2597.615c-3.514,0.063-6.459-2.603-6.616-6.032l-4.9-107.712
					c-0.161-3.552,1.552-6.867,4.578-8.868c3.027-2.003,6.829-2.338,10.177-0.89l110.581,47.83c3.648,1.577,6.024,4.965,6.2,8.841
					c0.174,3.875-1.888,7.456-5.382,9.346l-95.932,51.825c-3.148,1.698-7.109,0.601-8.854-2.445
					c-1.748-3.049-0.615-6.897,2.529-8.596l91.496-49.43l-102.199-44.203l4.719,103.73c0.158,3.488-2.626,6.442-6.218,6.6
					C2484.81,2597.613,2484.752,2597.614,2484.693,2597.615z"/>
			</g>
		</g>
	</g>
</g>
</svg>
