<svg width="41" height="20" viewBox="0 0 41 20" fill="none" xmlns="http://www.w3.org/2000/svg">
    <g clip-path="url(#clip0_101_9)">
        <path id="background" d="M0 9.6C0 5.07452 0 2.81178 1.40589 1.40589C2.81178 0 5.07452 0 9.6 0H10.4C14.9255 0 17.1882 0 18.5941 1.40589C20 2.81178 20 5.07452 20 9.6V10.4C20 14.9255 20 17.1882 18.5941 18.5941C17.1882 20 14.9255 20 10.4 20H9.6C5.07452 20 2.81178 20 1.40589 18.5941C0 17.1882 0 14.9255 0 10.4V9.6Z"
              fill="#0077FF"/>
        <path d="M10.7375 14.33C6.22504 14.33 3.48727 11.2025 3.38 6H5.66547C5.73671 9.82165 7.47543 11.437 8.80828 11.77V6H10.9985V9.3C12.2841 9.15751 13.6298 7.65546 14.0821 6H16.2378C15.8928 8.0357 14.4279 9.5312 13.3928 10.15C14.4287 10.6503 16.0953 11.9613 16.7382 14.33H14.3686C13.8683 12.7466 12.6427 11.5265 10.9993 11.36V14.33H10.7375Z"
              fill="white"/>
    </g>
    <path d="M25.001 16H27V4H25.001V16Z" fill="black"/>
    <path d="M29.5 16H34.2688C37.9127 16 40.501 13.5149 40.501 9.99149C40.501 6.48511 37.9127 4 34.2688 4H29.5V16ZM31.5433 14.1277V5.87234H34.2688C36.7038 5.87234 38.3725 7.55745 38.3725 9.99149C38.3725 12.4426 36.7038 14.1277 34.2688 14.1277H31.5433Z"
          fill="black"/>
    <defs>
        <clipPath id="clip0_101_9">
            <rect width="20" height="20" fill="white"/>
        </clipPath>
    </defs>
</svg>
